# xmcd CD database file
#
# Track frame offsets:
#	150
#	13149
#	27307
#	40229
#	54704
#	68052
#	81549
#	94463
#	106091
#	118302
#	131090
#	144094
#	157088
#	169618
#	183616
#	196229
#	210029
#	223696
#	238807
#	252268
#	265970
#	279347
#	292380
#	307583
#	321938
#	337619
#
# Disc length: 4708 seconds
#
# Revision: 0
# Processed by: cddbd v1.5PL3 Copyright (c) Steve Scherf et al.
# Submitted via: CDex 1.50
#
DISCID=8412621a
DTITLE=Miff Mole's Molers Featuring Sophie Tucker - That's A Plenty
DYEAR=2001
DGENRE=Jazz
TTITLE0=Alexander's Ragtime Band
TTITLE1=Some Sweet Day
TTITLE2=Hurricane
TTITLE3=Davenport Blues
TTITLE4=A Hot Time In The Old Town Tonight
TTITLE5=The Darktown Strutter's Ball
TTITLE6=After You've Gone
TTITLE7=I Ain't Got Nobody
TTITLE8=One Sweet Letter From You
TTITLE9=Fifty Million French Men Can't Be Wrong
TTITLE10=Imagination
TTITLE11=Feelin' No Pain
TTITLE12=Original Dixieland One-Step
TTITLE13=My Gal Sal
TTITLE14=Honolulu Blues
TTITLE15=The New Twister
TTITLE16=Crazy Rhythm
TTITLE17=You Took Advantage Of Me
TTITLE18=You're The Cream In My Coffee
TTITLE19=Wild Oat Joe
TTITLE20=I've Got A Feeling I'm Falling
TTITLE21=That's A Plenty
TTITLE22=Moanin' Low
TTITLE23=You Made Me Love You
TTITLE24=Navy Blues
TTITLE25=Lucky Little Devil
EXTD=YEAR: 2001
EXTT0=
EXTT1=
EXTT2=
EXTT3=
EXTT4=
EXTT5=
EXTT6=
EXTT7=
EXTT8=
EXTT9=
EXTT10=
EXTT11=
EXTT12=
EXTT13=
EXTT14=
EXTT15=
EXTT16=
EXTT17=
EXTT18=
EXTT19=
EXTT20=
EXTT21=
EXTT22=
EXTT23=
EXTT24=
EXTT25=
PLAYORDER=
